<svg xmlns="http://www.w3.org/2000/svg" width="558.543" height="548.526" viewBox="0 0 558.543 548.526"><g transform="translate(28.754 60.368)" opacity="0.1"><path d="M106.334,158.863,84.85,134.8s36.8-14.307,41.081-36.8C125.931,98,140.744,128.178,106.334,158.863Z" transform="translate(281.582 306.031)" fill="#de8b4e"/><path d="M92.366,17.179S7.075,9.91,9.79,62.217,129.951,128.278,127.467,91.2s-133.411,24.658-65,81.978,142.611-19.506,118.183-39.471-97.666,45.176-51.984,116.205" transform="translate(-36.476 -75.197)" fill="none" stroke="#fe5959" stroke-miterlimit="10" stroke-width="4"/><path d="M44.227,115.15s-26.59,51.018,6.671,63.025,72.226-57.689,48.4-65.785-19.184,89.523,34.227,61.691,24.7-93.755,5.98-83.773,13.525,89.661,91.731,62.059" transform="translate(97.977 306.554)" fill="none" stroke="#7688f1" stroke-miterlimit="10" stroke-width="4"/><path d="M43.244,18.83,41.91,45.144l31.7,10.4L69.558,20.164Z" transform="translate(126.983 20.99)" fill="#fe9f59"/><path d="M105.317,61.79,96.3,78.259l17.159,16.469,8.327-23.968Z" transform="translate(322.806 175.662)" fill="#fe5959"/><path d="M105.244,52.83,103.91,79.144l14.215,2.07,13.433-27.05Z" transform="translate(350.205 143.403)" fill="#fe9f59"/><path d="M49.283,117.332l22.818-13.2L63.544,71.88,36.08,94.514Z" transform="translate(105.992 211.989)" fill="#fe9f59"/><path d="M58.485,83.946,50.343,58.92,16.99,60.53l16.423,31.6Z" transform="translate(37.262 165.329)" fill="#fe5959"/><path d="M79.229,115.111l16.1-9.339L89.3,83,69.89,99.009Z" transform="translate(227.721 252.025)" fill="#7681c2"/><path d="M46.451,84.835,35.318,69.93l-21.9,8.649L31.545,95.968Z" transform="translate(24.408 204.969)" fill="#7681c2"/><path d="M116.3,89.77l21.484,24.06s-36.8,14.307-41.081,36.8C96.7,150.633,81.888,120.454,116.3,89.77Z" transform="translate(312.836 276.4)" fill="#fe9f59"/><path d="M88.2,86.578l-5.612,31.65S48.734,98.263,28.17,108.384C28.17,108.384,42.937,78.344,88.2,86.578Z" transform="translate(77.514 259.764)" fill="#de5050"/><path d="M18.78,116.31l5.612-31.65S58.251,104.626,78.815,94.5C78.815,94.5,64.048,124.545,18.78,116.31Z" transform="translate(43.706 258.002)" fill="#fe5959"/><path d="M46,63.593l3.312-32.2s35.193,17.527,54.928,5.7C104.425,37.278,92,68.331,46,63.593Z" transform="translate(141.708 66.211)" fill="#7681c2"/><path d="M113.582,30.995,110.27,63.2s-35.193-17.527-54.928-5.7C55.158,57.309,67.579,26.257,113.582,30.995Z" transform="translate(175.334 63.018)" fill="#5f6dc2"/><path d="M102.063,69.19,89.55,39.518s39.287-1.61,50.88-21.438C140.384,18.034,144.432,51.295,102.063,69.19Z" transform="translate(298.504 18.29)" fill="#7681c2"/><circle cx="6.901" cy="6.901" r="6.901" transform="translate(254.84 306.595)" fill="#7681c2"/><circle cx="9.201" cy="9.201" r="9.201" transform="translate(272.815 42.902)" fill="#7681c2"/><circle cx="6.901" cy="6.901" r="6.901" transform="translate(339.52 381.029)" fill="#fe9f59"/><circle cx="6.901" cy="6.901" r="6.901" transform="translate(196.909 13)" fill="#fe9f59"/><circle cx="6.901" cy="6.901" r="6.901" transform="translate(26.695 197.015)" fill="#fe9f59"/><circle cx="6.901" cy="6.901" r="6.901" transform="translate(449.929 169.412)" fill="#fe5959"/><circle cx="6.901" cy="6.901" r="6.901" transform="translate(206.11 197.015)" fill="#fe5959"/><circle cx="11.501" cy="11.501" r="11.501" transform="translate(371.723 293.622)" fill="#fe5959"/><path d="M94,77s4.6,46,41.4,41.4,64.405,0,59.8,41.4-27.6,46-27.6,46l23-9.2v27.6s32.2-50.6,23-87.407S140,113.8,140,113.8s-18.4-9.2-9.2-27.6Z" transform="translate(314.526 230.423)" fill="#fe5959"/></g></svg>